<svg id="Layer_3" data-name="Layer 3" xmlns="http://www.w3.org/2000/svg" viewBox="0 0 951.23 1184.95"><defs><style>.cls-1{fill:#fff;}.cls-2{fill:#231f20;}</style></defs><polygon class="cls-1" points="219.13 55.82 351.63 55.82 351.63 90.09 436.46 122.81 445.39 107.92 565.97 107.92 565.97 180.12 664.21 304.41 726.25 304.41 622.53 456.24 637.42 548.53 583.83 590.21 576.38 657.2 550.04 657.2 550.04 683.99 496 730.14 443.29 730.14 363.54 581.28 398.52 521 343.44 433.17 344.93 361.72 181.17 360.23 93.36 272.41 219.13 55.82"/><polygon class="cls-1" points="639.65 587.98 638.16 622.22 629.23 637.1 632.21 660.92 650.34 660.92 676.86 598.4 676.86 583.99 687.85 583.99 679.84 558.21 660.49 587.98 639.65 587.98"/><polygon class="cls-1" points="175.22 403.4 305.05 403.4 305.05 445.94 318.13 465.92 219.88 634.13 42.99 634.13 175.22 403.4"/><polygon class="cls-1" points="767.66 315.57 672.4 458.48 771.65 634.13 951.23 634.13 767.66 315.57"/><polygon class="cls-1" points="407.45 0 443.16 65.5 605.5 65.5 605.5 167.05 684.31 263.48 733.43 263.48 585.32 0 407.45 0"/><polygon class="cls-1" points="32.67 966.43 0 966.43 71 820.43 92.88 820.43 162.97 966.43 129.72 966.43 116 937.43 45 937.43 32.67 966.43"/><polygon class="cls-2" points="82 852.43 57 903.43 105.75 903.43 82 852.43"/><polygon class="cls-1" points="817.67 964.43 785 964.43 856 818.43 877.87 818.43 947.97 964.43 914.72 964.43 901 935.43 830 935.43 817.67 964.43"/><polygon class="cls-2" points="867 850.43 842 901.43 890.75 901.43 867 850.43"/><polygon class="cls-1" points="176 818.43 176 963.66 202.76 963.66 202.76 899.43 270 899.43 270 877.93 202.76 877.93 202.76 843.43 272 843.43 272 818.43 176 818.43"/><path class="cls-1" d="M417.21,875v145.23h27.08v-58.1h15.33a8.86,8.86,0,0,1,2.23.29c12.78,3.5,20.7,9.92,22.76,19.85.1.48.21,1,.35,1.44l11,36.52h31L508.75,972c-3.18-8-8.49-14-17-17,32.22-15.5,41.22-55.21-1.07-77.3a24.29,24.29,0,0,0-11.24-2.7Z" transform="translate(-127.76 -56.54)"/><path class="cls-2" d="M444.75,893V939h26.61a4.83,4.83,0,0,0,1.5-.22c24.33-7.74,24.61-36.92,1.46-45.14a12.32,12.32,0,0,0-4.16-.7Z" transform="translate(-127.76 -56.54)"/><polygon class="cls-1" points="512.05 818.43 417.24 818.43 417.24 963.66 512.05 963.66 512.05 940.43 444 940.43 444 899.43 512.05 899.43 512.05 877.17 444 877.17 444 841.43 512.05 841.43 512.05 818.43"/><polygon class="cls-1" points="629.05 818.43 534.24 818.43 534.24 963.66 629.05 963.66 629.05 940.43 561 940.43 561 899.43 629.05 899.43 629.05 877.17 561 877.17 561 841.43 629.05 841.43 629.05 818.43"/><path class="cls-1" d="M910.75,900l-17,19c-32.24-36.36-78-23.46-90.42,21.74a33,33,0,0,0-.68,14.76c8.64,47.72,70.86,53.74,90.1,19.5l20,20c-35.14,46-122.8,36.69-136.66-31.17a69.27,69.27,0,0,1-1.34-14v-6.36A62.54,62.54,0,0,1,785,908.83c29.25-44.16,73.56-45.69,111.78-21.89Z" transform="translate(-127.76 -56.54)"/><rect class="cls-1" x="13.99" y="1035.43" width="29" height="146.88"/><polygon class="cls-1" points="119.24 1035.43 119.24 1182.31 149 1182.31 149 1082.46 213.94 1182.31 240 1182.31 240 1035.43 213.52 1035.43 214 1128.43 151.81 1035.43 119.24 1035.43"/><polygon class="cls-1" points="306.19 1035.43 338 1035.43 375 1135.43 413.49 1035.43 445 1035.43 388.96 1182.31 362.8 1182.31 306.19 1035.43"/><polygon class="cls-1" points="605.58 1035.43 510.62 1035.43 510.62 1182.31 606 1182.31 606 1157.19 537 1157.19 537 1117.43 606 1117.43 606 1095.76 537 1095.76 537 1058.43 606 1058.43 605.58 1035.43"/><path class="cls-1" d="M899.75,1107l-21,21c-14.57-15.21-33.64-20.06-46-.59a9.12,9.12,0,0,0-.94,7.84c4.37,12.94,15.5,12.83,41.89,23.75,45,26,35,64,0,79-28.46,8.2-53.3,1.89-75-17l19-20c21,22,57.13,18.38,55-3-1-10-16-16-38-24-22.75-9.48-29.06-15.56-33-38-.49-2.8.27-10.88,1-13.61,4.38-15.8,17-26.9,40.61-31.75a30.52,30.52,0,0,1,6.54-.61C880.34,1090.51,889.07,1098.65,899.75,1107Z" transform="translate(-127.76 -56.54)"/><polygon class="cls-1" points="836 1036.43 946 1036.43 946 1061.38 904.84 1061.38 904.84 1184.95 876.13 1184.95 876.13 1061.43 836 1061.43 836 1036.43"/><g id="Layer_4" data-name="Layer 4"><rect class="cls-1" x="727.49" y="627.83" width="3.39" height="3.39" rx="1.31"/><rect class="cls-1" x="736.58" y="618.61" width="3.41" height="3.41" rx="1.31"/><rect class="cls-1" x="756.84" y="618.34" width="2.62" height="2.62" rx="1.31"/></g></svg>